<svg width="59" height="20" viewBox="0 0 59 20" fill="none" xmlns="http://www.w3.org/2000/svg">
<g clip-path="url(#clip0_10_2)">
<path d="M0 19.5675V0.216137H6.70257C7.53798 0.210363 8.36748 0.356616 9.15054 0.647751C9.89243 0.921532 10.5756 1.33373 11.1637 1.86242C11.7612 2.40564 12.2363 3.06978 12.5574 3.81073C12.8785 4.55168 13.0383 5.35249 13.0262 6.15994C13.0346 6.9628 12.873 7.75835 12.552 8.49429C12.231 9.23023 11.7578 9.8899 11.1637 10.4299C10.5757 10.9588 9.89253 11.371 9.15054 11.6446C8.36804 11.9358 7.53911 12.0823 6.70419 12.077H3.05369V19.5635L0 19.5675ZM6.78355 9.1618C7.24674 9.17079 7.70681 9.08423 8.13507 8.90753C8.51251 8.74946 8.85304 8.51481 9.13515 8.21841C9.40158 7.93653 9.61231 7.60683 9.75626 7.24667C9.89699 6.90351 9.97039 6.53649 9.97247 6.16561C9.97004 5.39412 9.67012 4.65331 9.13515 4.09742C8.82929 3.78658 8.46334 3.54127 8.05961 3.37643C7.65587 3.2116 7.2228 3.13069 6.78678 3.13864H3.05369V9.16504L6.78355 9.1618Z" fill="#191919"/>
<path d="M15.4045 6.32434V19.5675H18.4047V6.32434H15.4045Z" fill="#191919"/>
<path d="M18.9109 2.02442C18.9153 2.28996 18.8662 2.55367 18.7665 2.7998C18.6667 3.04593 18.5183 3.26942 18.3303 3.45692C18.1479 3.6491 17.9274 3.8012 17.683 3.90353C17.4386 4.00586 17.1756 4.05619 16.9107 4.0513V4.0513V-3.67918e-05C17.1756 -0.00472098 17.4386 0.0456959 17.6829 0.148016C17.9273 0.250336 18.1477 0.402325 18.3303 0.594343C18.5179 0.78164 18.666 1.00475 18.7658 1.25042C18.8655 1.49609 18.9149 1.7593 18.9109 2.02442V2.02442Z" fill="#35AF39"/>
<path d="M16.9082 -6.42054e-05V4.05371C16.6399 4.0599 16.3732 4.01027 16.1251 3.90795C15.877 3.80563 15.6528 3.65286 15.4668 3.45933C15.2779 3.27186 15.1288 3.04808 15.0286 2.80148C14.9284 2.55487 14.8791 2.29054 14.8838 2.02439C14.88 1.75909 14.9296 1.49573 15.0298 1.25003C15.13 1.00433 15.2786 0.781327 15.4668 0.594316C15.653 0.401101 15.8772 0.24854 16.1253 0.146244C16.3734 0.0439478 16.64 -0.00586755 16.9082 -6.42054e-05V-6.42054e-05Z" fill="#00BAFC"/>
<path d="M24.9996 12.8374L20.4316 6.32434H23.9185L26.7827 10.5133H26.8637L29.536 6.32434H33.1574L28.5359 12.8374L33.2383 19.5675H29.6753L26.8103 15.2433H26.7293L23.8886 19.5675H20.3506L24.9996 12.8374Z" fill="#191919"/>
<path d="M46.837 16.4053C46.267 17.444 45.4495 18.326 44.4571 18.9731C43.4313 19.6588 42.1705 20.0016 40.6746 20.0016C39.7342 20.0114 38.8015 19.8322 37.9318 19.4744C37.1138 19.1368 36.3733 18.6355 35.7559 18.0014C35.1359 17.3602 34.649 16.6025 34.3234 15.7721C33.9729 14.8722 33.7986 13.9133 33.81 12.9475C33.8047 12.0201 33.9694 11.0996 34.2959 10.2315C34.6033 9.40329 35.0664 8.64159 35.6604 7.98763C36.2804 7.31501 37.0354 6.78082 37.876 6.41996C38.7166 6.05911 39.6238 5.87972 40.5385 5.89353C41.5642 5.89353 42.4788 6.06467 43.2821 6.40693C44.0578 6.73137 44.754 7.22009 45.3227 7.83944C45.8983 8.48216 46.3353 9.23666 46.6062 10.0558C46.9111 10.9693 47.0619 11.9271 47.0524 12.8901V13.133C47.0351 13.2128 47.0259 13.2942 47.0249 13.3759C47.0072 13.4466 46.9983 13.5192 46.9982 13.5921H36.8103C36.8481 14.1675 37.0044 14.7288 37.2694 15.2409C37.5017 15.6851 37.8183 16.0798 38.2015 16.4029C38.5639 16.7056 38.9816 16.9349 39.4315 17.0782C39.8589 17.2191 40.3056 17.292 40.7555 17.2945C41.6193 17.2945 42.3311 17.0874 42.8909 16.6734C43.449 16.2587 43.9173 15.7353 44.2676 15.1348L46.837 16.4053ZM44.0522 11.2972C44.0045 10.9859 43.9183 10.6818 43.7955 10.3919C43.6524 10.0473 43.4411 9.73522 43.1744 9.47439C42.8604 9.17215 42.4941 8.92958 42.0933 8.75854C41.6522 8.56042 41.1164 8.46135 40.4859 8.46135C39.6221 8.46135 38.8787 8.71805 38.2557 9.23146C37.6328 9.74486 37.2138 10.4334 36.999 11.2972H44.0522Z" fill="#191919"/>
<path d="M49.323 6.32433H52.1572V8.32449H52.3192C52.4896 7.97305 52.7142 7.6506 52.9848 7.36895C53.263 7.07153 53.5817 6.81474 53.9315 6.60613C54.2826 6.39782 54.6541 6.2258 55.0401 6.09273C55.4001 5.96378 55.7792 5.8959 56.1616 5.89191C56.5346 5.88492 56.9069 5.92601 57.2694 6.01418C57.5619 6.09061 57.8435 6.2038 58.1075 6.35105L57.2427 9.08083C57.0308 8.98686 56.8084 8.91888 56.5803 8.87838C56.2903 8.82962 55.9965 8.80686 55.7025 8.81036C55.2391 8.80497 54.7808 8.90755 54.3639 9.10998C53.9584 9.30931 53.5958 9.58605 53.2966 9.92462C52.9822 10.2826 52.7393 10.6973 52.5807 11.1466C52.408 11.6256 52.3211 12.1314 52.324 12.6406V19.5675H49.3279L49.323 6.32433Z" fill="#191919"/>
</g>
<defs>
<clipPath id="clip0_10_2">
<rect width="58.1067" height="20" fill="white"/>
</clipPath>
</defs>
</svg>
